<svg xmlns="http://www.w3.org/2000/svg" width="600" height="400" viewBox="0 0 600 400"><rect width="100%" height="100%" fill="#1F391B"/><path fill="#999999" d="M162.93 166.57v8.18H146.8v45.32h-9.95v-45.32h-16.13v-8.18zm12.81 30.15h17.24q0-1.77-.5-3.35-.5-1.57-1.5-2.75-1-1.19-2.54-1.87-1.53-.68-3.57-.68-3.95 0-6.23 2.25-2.28 2.26-2.9 6.4m23.31 5.52h-23.5q.22 2.92 1.04 5.05.81 2.12 2.14 3.51t3.17 2.07q1.83.69 4.05.69t3.83-.52 2.81-1.15 2.11-1.14q.9-.52 1.76-.52 1.14 0 1.7.85l2.62 3.33q-1.51 1.78-3.4 2.98t-3.94 1.92-4.18 1.02q-2.13.29-4.13.29-3.96 0-7.36-1.31t-5.92-3.88-3.96-6.37q-1.44-3.79-1.44-8.78 0-3.89 1.26-7.31 1.25-3.42 3.6-5.96 2.35-2.53 5.74-4.01 3.38-1.48 7.64-1.48 3.59 0 6.62 1.14 3.04 1.15 5.22 3.35t3.42 5.4 1.24 7.31q0 2.07-.44 2.79-.45.73-1.7.73m34.22-16.02-2.07 3.29q-.37.59-.78.83t-1.03.24q-.67 0-1.43-.37t-1.76-.83-2.27-.83q-1.28-.37-3.02-.37-2.7 0-4.23 1.14-1.54 1.15-1.54 3 0 1.22.8 2.05.79.84 2.1 1.47 1.32.62 2.98 1.12 1.67.5 3.39 1.09 1.72.6 3.38 1.36 1.67.75 2.98 1.92 1.32 1.17 2.11 2.79.8 1.63.8 3.93 0 2.73-.98 5.05-.98 2.31-2.91 3.99-1.92 1.69-4.75 2.63t-6.53.94q-1.96 0-3.83-.35t-3.59-.98-3.18-1.48-2.57-1.85l2.1-3.48q.41-.63.97-.96.55-.33 1.4-.33t1.61.48 1.76 1.03q1 .56 2.35 1.04t3.42.48q1.63 0 2.79-.39 1.17-.39 1.93-1.01.76-.63 1.11-1.47.35-.83.35-1.72 0-1.33-.8-2.18-.79-.85-2.1-1.48-1.32-.63-3-1.13t-3.44-1.09-3.44-1.39q-1.69-.79-3-2.01t-2.11-3q-.79-1.78-.79-4.29 0-2.33.92-4.44.93-2.11 2.72-3.68 1.79-1.58 4.48-2.52 2.68-.94 6.19-.94 3.93 0 7.15 1.29 3.21 1.3 5.36 3.41m19.94 34.44q-4.95 0-7.6-2.79-2.65-2.8-2.65-7.72v-21.2h-3.88q-.74 0-1.26-.48t-.52-1.44v-3.63l6.11-1 1.92-10.36q.19-.74.71-1.14.51-.41 1.33-.41h4.73v11.95h10.14v6.51H252.1v20.58q0 1.77.87 2.77t2.39 1q.85 0 1.42-.2.58-.21 1-.43.43-.22.76-.43.33-.2.67-.2.4 0 .66.2.26.21.56.62l2.74 4.44q-2 1.66-4.59 2.51t-5.37.85m44.29-54.09v53.5h-9.99v-53.5zm19.65 53.5h-9.14v-37.96h5.59q1.77 0 2.33 1.66l.59 2.82q1-1.11 2.09-2.04t2.33-1.59q1.24-.67 2.67-1.06 1.42-.38 3.12-.38 3.59 0 5.9 1.94 2.32 1.94 3.46 5.16.89-1.89 2.22-3.24t2.93-2.2q1.59-.85 3.38-1.26 1.8-.4 3.61-.4 3.14 0 5.59.96 2.44.96 4.1 2.81 1.67 1.85 2.54 4.51.87 2.67.87 6.11v24.16h-9.14v-24.16q0-3.63-1.59-5.46t-4.66-1.83q-1.41 0-2.61.48-1.21.48-2.11 1.39-.91.91-1.43 2.27-.52 1.37-.52 3.15v24.16h-9.17v-24.16q0-3.81-1.54-5.55-1.53-1.74-4.49-1.74-2 0-3.72.98t-3.2 2.68zm72.89-9.8v-6.41q-3.96.19-6.66.69t-4.33 1.28q-1.63.77-2.33 1.81-.7 1.03-.7 2.26 0 2.4 1.42 3.44 1.42 1.03 3.72 1.03 2.81 0 4.86-1.02 2.06-1.01 4.02-3.08m-19.32-19.95-1.62-2.92q6.55-5.99 15.76-5.99 3.33 0 5.96 1.09 2.62 1.09 4.44 3.03 1.81 1.94 2.75 4.64.95 2.7.95 5.92v23.98h-4.15q-1.29 0-2-.39-.7-.39-1.11-1.57l-.81-2.74q-1.44 1.3-2.81 2.28t-2.85 1.64q-1.48.67-3.16 1.02-1.69.35-3.72.35-2.41 0-4.44-.65-2.04-.64-3.52-1.94-1.48-1.29-2.29-3.22-.82-1.92-.82-4.47 0-1.45.48-2.87.49-1.43 1.58-2.72 1.09-1.3 2.83-2.44 1.74-1.15 4.27-2 2.54-.85 5.9-1.39 3.37-.53 7.7-.65v-2.22q0-3.81-1.63-5.64t-4.7-1.83q-2.22 0-3.68.52t-2.57 1.16q-1.11.65-2.02 1.17-.9.52-2.01.52-.97 0-1.63-.5-.67-.5-1.08-1.17m50.69 9.84q1.71 0 2.97-.46 1.25-.46 2.09-1.27.83-.82 1.25-1.97.43-1.14.43-2.51 0-2.81-1.68-4.46-1.69-1.65-5.06-1.65-3.36 0-5.05 1.65-1.68 1.65-1.68 4.46 0 1.33.43 2.48.42 1.14 1.25 1.98.84.83 2.11 1.29 1.28.46 2.94.46m10.33 21.61q0-1.11-.67-1.81-.66-.7-1.81-1.09t-2.68-.58q-1.54-.18-3.26-.27-1.72-.1-3.55-.17t-3.57-.3q-1.52.86-2.46 2-.95 1.15-.95 2.67 0 1 .5 1.86.5.87 1.59 1.5 1.1.63 2.83.98 1.74.35 4.26.35 2.55 0 4.4-.38 1.85-.39 3.06-1.08 1.2-.68 1.75-1.62.56-.95.56-2.06m-1.82-38.37h10.92v3.41q0 1.63-1.96 2l-3.4.62q.77 1.97.77 4.3 0 2.81-1.13 5.08-1.13 2.28-3.12 3.87-2 1.59-4.72 2.46t-5.87.87q-1.11 0-2.14-.11-1.04-.11-2.04-.3-1.77 1.08-1.77 2.41 0 1.15 1.05 1.68 1.06.54 2.8.76t3.96.28q2.22.05 4.55.24 2.33.18 4.55.65 2.22.46 3.96 1.46 1.73 1 2.79 2.72 1.05 1.72 1.05 4.42 0 2.51-1.24 4.88t-3.58 4.22q-2.35 1.85-5.78 2.98-3.42 1.13-7.79 1.13-4.29 0-7.47-.84-3.18-.83-5.29-2.22-2.11-1.38-3.14-3.2-1.04-1.81-1.04-3.77 0-2.66 1.61-4.46 1.61-1.79 4.42-2.87-1.52-.77-2.41-2.07-.88-1.29-.88-3.4 0-.85.31-1.76.32-.91.93-1.79.61-.89 1.53-1.69.93-.79 2.18-1.42-2.88-1.56-4.53-4.15-1.64-2.59-1.64-6.06 0-2.82 1.12-5.09 1.13-2.28 3.15-3.89t4.77-2.46q2.76-.85 6.01-.85 2.45 0 4.59.5 2.15.5 3.92 1.46m23.91 13.32h17.24q0-1.77-.5-3.35-.5-1.57-1.5-2.75-1-1.19-2.53-1.87-1.54-.68-3.57-.68-3.96 0-6.24 2.25-2.27 2.26-2.9 6.4m23.31 5.52h-23.5q.22 2.92 1.04 5.05.81 2.12 2.14 3.51 1.34 1.39 3.17 2.07 1.83.69 4.05.69t3.83-.52 2.81-1.15 2.11-1.14q.91-.52 1.76-.52 1.14 0 1.7.85l2.63 3.33q-1.52 1.78-3.41 2.98t-3.94 1.92-4.18 1.02q-2.13.29-4.12.29-3.96 0-7.37-1.31-3.4-1.31-5.92-3.88-2.51-2.57-3.96-6.37-1.44-3.79-1.44-8.78 0-3.89 1.26-7.31t3.61-5.96q2.35-2.53 5.73-4.01 3.39-1.48 7.64-1.48 3.59 0 6.62 1.14 3.04 1.15 5.22 3.35t3.42 5.4 1.24 7.31q0 2.07-.44 2.79-.45.73-1.7.73"/></svg>